<mxfile host="app.diagrams.net" agent="Mozilla/5.0 (Windows NT 10.0; Win64; x64) AppleWebKit/537.36 (KHTML, like Gecko) Chrome/133.0.0.0 Safari/537.36" version="26.0.15">
  <diagram name="Page-1" id="56paEiwbnW-zMoiznNki">
    <mxGraphModel dx="1904" dy="1220" grid="0" gridSize="10" guides="1" tooltips="1" connect="1" arrows="1" fold="1" page="0" pageScale="1" pageWidth="827" pageHeight="1169" math="0" shadow="0">
      <root>
        <mxCell id="0" />
        <mxCell id="1" parent="0" />
        <mxCell id="QkGEctxYSxYpFgOkM6_B-105" value="Registration&lt;div&gt;And Log In&lt;/div&gt;" style="html=1;whiteSpace=wrap;" vertex="1" parent="1">
          <mxGeometry x="1180" y="210" width="110" height="50" as="geometry" />
        </mxCell>
        <mxCell id="QkGEctxYSxYpFgOkM6_B-106" value="Authentication" style="html=1;whiteSpace=wrap;" vertex="1" parent="1">
          <mxGeometry x="1180" y="350" width="110" height="50" as="geometry" />
        </mxCell>
        <mxCell id="QkGEctxYSxYpFgOkM6_B-107" value="Verification System" style="html=1;whiteSpace=wrap;" vertex="1" parent="1">
          <mxGeometry x="1120" y="770" width="110" height="50" as="geometry" />
        </mxCell>
        <mxCell id="QkGEctxYSxYpFgOkM6_B-108" value="Subscription System" style="html=1;whiteSpace=wrap;" vertex="1" parent="1">
          <mxGeometry x="950" y="510" width="110" height="50" as="geometry" />
        </mxCell>
        <mxCell id="QkGEctxYSxYpFgOkM6_B-109" value="Property Lising" style="html=1;whiteSpace=wrap;" vertex="1" parent="1">
          <mxGeometry x="1120" y="630" width="110" height="50" as="geometry" />
        </mxCell>
        <mxCell id="QkGEctxYSxYpFgOkM6_B-110" value="Payment System" style="html=1;whiteSpace=wrap;" vertex="1" parent="1">
          <mxGeometry x="970" y="630" width="110" height="50" as="geometry" />
        </mxCell>
        <mxCell id="QkGEctxYSxYpFgOkM6_B-111" value="Marketplace System" style="html=1;whiteSpace=wrap;" vertex="1" parent="1">
          <mxGeometry x="1180" y="510" width="110" height="50" as="geometry" />
        </mxCell>
        <mxCell id="QkGEctxYSxYpFgOkM6_B-112" value="" style="rounded=0;orthogonalLoop=1;jettySize=auto;html=1;endArrow=halfCircle;endFill=0;endSize=6;strokeWidth=1;sketch=0;exitX=0.5;exitY=0;exitDx=0;exitDy=0;" edge="1" parent="1" source="QkGEctxYSxYpFgOkM6_B-106" target="QkGEctxYSxYpFgOkM6_B-114">
          <mxGeometry relative="1" as="geometry">
            <mxPoint x="1244.75" y="350" as="sourcePoint" />
          </mxGeometry>
        </mxCell>
        <mxCell id="QkGEctxYSxYpFgOkM6_B-113" value="" style="rounded=0;orthogonalLoop=1;jettySize=auto;html=1;endArrow=oval;endFill=0;sketch=0;sourcePerimeterSpacing=0;targetPerimeterSpacing=0;endSize=10;exitX=0.5;exitY=1;exitDx=0;exitDy=0;" edge="1" parent="1" source="QkGEctxYSxYpFgOkM6_B-105" target="QkGEctxYSxYpFgOkM6_B-114">
          <mxGeometry relative="1" as="geometry">
            <mxPoint x="1251" y="259.9999999999999" as="sourcePoint" />
          </mxGeometry>
        </mxCell>
        <mxCell id="QkGEctxYSxYpFgOkM6_B-114" value="" style="ellipse;whiteSpace=wrap;html=1;align=center;aspect=fixed;fillColor=none;strokeColor=none;resizable=0;perimeter=centerPerimeter;rotatable=0;allowArrows=0;points=[];outlineConnect=1;" vertex="1" parent="1">
          <mxGeometry x="1230" y="310" width="10" height="10" as="geometry" />
        </mxCell>
        <mxCell id="QkGEctxYSxYpFgOkM6_B-115" value="iRegistration" style="text;html=1;align=center;verticalAlign=middle;resizable=0;points=[];autosize=1;strokeColor=none;fillColor=none;" vertex="1" parent="1">
          <mxGeometry x="1230" y="300" width="90" height="30" as="geometry" />
        </mxCell>
        <mxCell id="QkGEctxYSxYpFgOkM6_B-116" value="" style="rounded=0;orthogonalLoop=1;jettySize=auto;html=1;endArrow=halfCircle;endFill=0;endSize=6;strokeWidth=1;sketch=0;exitX=0.5;exitY=0;exitDx=0;exitDy=0;" edge="1" parent="1" source="QkGEctxYSxYpFgOkM6_B-111" target="QkGEctxYSxYpFgOkM6_B-118">
          <mxGeometry relative="1" as="geometry">
            <mxPoint x="1255" y="465" as="sourcePoint" />
          </mxGeometry>
        </mxCell>
        <mxCell id="QkGEctxYSxYpFgOkM6_B-117" value="" style="rounded=0;orthogonalLoop=1;jettySize=auto;html=1;endArrow=oval;endFill=0;sketch=0;sourcePerimeterSpacing=0;targetPerimeterSpacing=0;endSize=10;exitX=0.5;exitY=1;exitDx=0;exitDy=0;" edge="1" parent="1" source="QkGEctxYSxYpFgOkM6_B-106" target="QkGEctxYSxYpFgOkM6_B-118">
          <mxGeometry relative="1" as="geometry">
            <mxPoint x="1215" y="465" as="sourcePoint" />
          </mxGeometry>
        </mxCell>
        <mxCell id="QkGEctxYSxYpFgOkM6_B-118" value="" style="ellipse;whiteSpace=wrap;html=1;align=center;aspect=fixed;fillColor=none;strokeColor=none;resizable=0;perimeter=centerPerimeter;rotatable=0;allowArrows=0;points=[];outlineConnect=1;" vertex="1" parent="1">
          <mxGeometry x="1230" y="460" width="10" height="10" as="geometry" />
        </mxCell>
        <mxCell id="QkGEctxYSxYpFgOkM6_B-119" value="iAuthentication" style="text;html=1;align=center;verticalAlign=middle;resizable=0;points=[];autosize=1;strokeColor=none;fillColor=none;" vertex="1" parent="1">
          <mxGeometry x="1235" y="450" width="100" height="30" as="geometry" />
        </mxCell>
        <mxCell id="QkGEctxYSxYpFgOkM6_B-120" value="Rating System" style="html=1;whiteSpace=wrap;" vertex="1" parent="1">
          <mxGeometry x="1390" y="630" width="110" height="50" as="geometry" />
        </mxCell>
        <mxCell id="QkGEctxYSxYpFgOkM6_B-121" value="Appointment System" style="html=1;whiteSpace=wrap;" vertex="1" parent="1">
          <mxGeometry x="1250" y="630" width="110" height="50" as="geometry" />
        </mxCell>
        <mxCell id="QkGEctxYSxYpFgOkM6_B-122" value="" style="rounded=0;orthogonalLoop=1;jettySize=auto;html=1;endArrow=halfCircle;endFill=0;endSize=6;strokeWidth=1;sketch=0;exitX=0.499;exitY=1.063;exitDx=0;exitDy=0;exitPerimeter=0;" edge="1" parent="1" source="QkGEctxYSxYpFgOkM6_B-109">
          <mxGeometry relative="1" as="geometry">
            <mxPoint x="1195" y="745" as="sourcePoint" />
            <mxPoint x="1175" y="720" as="targetPoint" />
          </mxGeometry>
        </mxCell>
        <mxCell id="QkGEctxYSxYpFgOkM6_B-123" value="" style="rounded=0;orthogonalLoop=1;jettySize=auto;html=1;endArrow=oval;endFill=0;sketch=0;sourcePerimeterSpacing=0;targetPerimeterSpacing=0;endSize=10;exitX=0.5;exitY=0;exitDx=0;exitDy=0;" edge="1" parent="1" source="QkGEctxYSxYpFgOkM6_B-107">
          <mxGeometry relative="1" as="geometry">
            <mxPoint x="1155" y="745" as="sourcePoint" />
            <mxPoint x="1175" y="720" as="targetPoint" />
          </mxGeometry>
        </mxCell>
        <mxCell id="QkGEctxYSxYpFgOkM6_B-124" value="" style="ellipse;whiteSpace=wrap;html=1;align=center;aspect=fixed;fillColor=none;strokeColor=none;resizable=0;perimeter=centerPerimeter;rotatable=0;allowArrows=0;points=[];outlineConnect=1;" vertex="1" parent="1">
          <mxGeometry x="1170" y="740" width="10" height="10" as="geometry" />
        </mxCell>
        <mxCell id="QkGEctxYSxYpFgOkM6_B-125" value="" style="rounded=0;orthogonalLoop=1;jettySize=auto;html=1;endArrow=halfCircle;endFill=0;endSize=6;strokeWidth=1;sketch=0;exitX=0;exitY=1;exitDx=0;exitDy=0;entryX=0.1;entryY=0.217;entryDx=0;entryDy=0;entryPerimeter=0;" edge="1" parent="1" source="QkGEctxYSxYpFgOkM6_B-111" target="QkGEctxYSxYpFgOkM6_B-127">
          <mxGeometry relative="1" as="geometry">
            <mxPoint x="1100" y="595" as="sourcePoint" />
            <Array as="points">
              <mxPoint x="1080" y="560" />
            </Array>
          </mxGeometry>
        </mxCell>
        <mxCell id="QkGEctxYSxYpFgOkM6_B-126" value="" style="rounded=0;orthogonalLoop=1;jettySize=auto;html=1;endArrow=oval;endFill=0;sketch=0;sourcePerimeterSpacing=0;targetPerimeterSpacing=0;endSize=10;exitX=1;exitY=0;exitDx=0;exitDy=0;" edge="1" parent="1" source="QkGEctxYSxYpFgOkM6_B-110" target="QkGEctxYSxYpFgOkM6_B-127">
          <mxGeometry relative="1" as="geometry">
            <mxPoint x="1060" y="595" as="sourcePoint" />
          </mxGeometry>
        </mxCell>
        <mxCell id="QkGEctxYSxYpFgOkM6_B-127" value="" style="ellipse;whiteSpace=wrap;html=1;align=center;aspect=fixed;fillColor=none;strokeColor=none;resizable=0;perimeter=centerPerimeter;rotatable=0;allowArrows=0;points=[];outlineConnect=1;" vertex="1" parent="1">
          <mxGeometry x="1075" y="590" width="10" height="10" as="geometry" />
        </mxCell>
        <mxCell id="QkGEctxYSxYpFgOkM6_B-128" value="" style="rounded=0;orthogonalLoop=1;jettySize=auto;html=1;endArrow=halfCircle;endFill=0;endSize=6;strokeWidth=1;sketch=0;exitX=0;exitY=0.5;exitDx=0;exitDy=0;" edge="1" parent="1" source="QkGEctxYSxYpFgOkM6_B-111" target="QkGEctxYSxYpFgOkM6_B-130">
          <mxGeometry relative="1" as="geometry">
            <mxPoint x="1130" y="535" as="sourcePoint" />
          </mxGeometry>
        </mxCell>
        <mxCell id="QkGEctxYSxYpFgOkM6_B-129" value="" style="rounded=0;orthogonalLoop=1;jettySize=auto;html=1;endArrow=oval;endFill=0;sketch=0;sourcePerimeterSpacing=0;targetPerimeterSpacing=0;endSize=10;exitX=1;exitY=0.5;exitDx=0;exitDy=0;" edge="1" parent="1" source="QkGEctxYSxYpFgOkM6_B-108" target="QkGEctxYSxYpFgOkM6_B-130">
          <mxGeometry relative="1" as="geometry">
            <mxPoint x="1090" y="535" as="sourcePoint" />
          </mxGeometry>
        </mxCell>
        <mxCell id="QkGEctxYSxYpFgOkM6_B-130" value="" style="ellipse;whiteSpace=wrap;html=1;align=center;aspect=fixed;fillColor=none;strokeColor=none;resizable=0;perimeter=centerPerimeter;rotatable=0;allowArrows=0;points=[];outlineConnect=1;" vertex="1" parent="1">
          <mxGeometry x="1105" y="530" width="10" height="10" as="geometry" />
        </mxCell>
        <mxCell id="QkGEctxYSxYpFgOkM6_B-131" value="" style="rounded=0;orthogonalLoop=1;jettySize=auto;html=1;endArrow=halfCircle;endFill=0;endSize=6;strokeWidth=1;sketch=0;" edge="1" parent="1" target="QkGEctxYSxYpFgOkM6_B-133">
          <mxGeometry relative="1" as="geometry">
            <mxPoint x="1210" y="560" as="sourcePoint" />
          </mxGeometry>
        </mxCell>
        <mxCell id="QkGEctxYSxYpFgOkM6_B-132" value="" style="rounded=0;orthogonalLoop=1;jettySize=auto;html=1;endArrow=oval;endFill=0;sketch=0;sourcePerimeterSpacing=0;targetPerimeterSpacing=0;endSize=10;" edge="1" parent="1" target="QkGEctxYSxYpFgOkM6_B-133">
          <mxGeometry relative="1" as="geometry">
            <mxPoint x="1210" y="630" as="sourcePoint" />
          </mxGeometry>
        </mxCell>
        <mxCell id="QkGEctxYSxYpFgOkM6_B-133" value="" style="ellipse;whiteSpace=wrap;html=1;align=center;aspect=fixed;fillColor=none;strokeColor=none;resizable=0;perimeter=centerPerimeter;rotatable=0;allowArrows=0;points=[];outlineConnect=1;" vertex="1" parent="1">
          <mxGeometry x="1205" y="600" width="10" height="10" as="geometry" />
        </mxCell>
        <mxCell id="QkGEctxYSxYpFgOkM6_B-134" value="" style="rounded=0;orthogonalLoop=1;jettySize=auto;html=1;endArrow=halfCircle;endFill=0;endSize=6;strokeWidth=1;sketch=0;exitX=0.323;exitY=-0.021;exitDx=0;exitDy=0;exitPerimeter=0;" edge="1" parent="1" source="QkGEctxYSxYpFgOkM6_B-121">
          <mxGeometry relative="1" as="geometry">
            <mxPoint x="1265.01" y="626.6999999999999" as="sourcePoint" />
            <mxPoint x="1284.9997841726617" y="600" as="targetPoint" />
          </mxGeometry>
        </mxCell>
        <mxCell id="QkGEctxYSxYpFgOkM6_B-135" value="" style="rounded=0;orthogonalLoop=1;jettySize=auto;html=1;endArrow=oval;endFill=0;sketch=0;sourcePerimeterSpacing=0;targetPerimeterSpacing=0;endSize=10;exitX=0.959;exitY=1.033;exitDx=0;exitDy=0;exitPerimeter=0;" edge="1" parent="1" source="QkGEctxYSxYpFgOkM6_B-111" target="QkGEctxYSxYpFgOkM6_B-136">
          <mxGeometry relative="1" as="geometry">
            <mxPoint x="1265" y="600" as="sourcePoint" />
          </mxGeometry>
        </mxCell>
        <mxCell id="QkGEctxYSxYpFgOkM6_B-136" value="" style="ellipse;whiteSpace=wrap;html=1;align=center;aspect=fixed;fillColor=none;strokeColor=none;resizable=0;perimeter=centerPerimeter;rotatable=0;allowArrows=0;points=[];outlineConnect=1;" vertex="1" parent="1">
          <mxGeometry x="1280" y="595" width="10" height="10" as="geometry" />
        </mxCell>
        <mxCell id="QkGEctxYSxYpFgOkM6_B-137" value="" style="rounded=0;orthogonalLoop=1;jettySize=auto;html=1;endArrow=halfCircle;endFill=0;endSize=6;strokeWidth=1;sketch=0;exitX=0.462;exitY=-0.03;exitDx=0;exitDy=0;exitPerimeter=0;entryX=0.205;entryY=0.371;entryDx=0;entryDy=0;entryPerimeter=0;" edge="1" parent="1" source="QkGEctxYSxYpFgOkM6_B-120" target="QkGEctxYSxYpFgOkM6_B-139">
          <mxGeometry relative="1" as="geometry">
            <mxPoint x="1435" y="605" as="sourcePoint" />
            <mxPoint x="1441" y="540" as="targetPoint" />
          </mxGeometry>
        </mxCell>
        <mxCell id="QkGEctxYSxYpFgOkM6_B-138" value="" style="rounded=0;orthogonalLoop=1;jettySize=auto;html=1;endArrow=oval;endFill=0;sketch=0;sourcePerimeterSpacing=0;targetPerimeterSpacing=0;endSize=10;exitX=0.997;exitY=0.412;exitDx=0;exitDy=0;entryX=0.548;entryY=0.867;entryDx=0;entryDy=0;entryPerimeter=0;exitPerimeter=0;" edge="1" parent="1" source="QkGEctxYSxYpFgOkM6_B-111" target="QkGEctxYSxYpFgOkM6_B-139">
          <mxGeometry relative="1" as="geometry">
            <mxPoint x="1420" y="530" as="sourcePoint" />
            <mxPoint x="1440" y="540" as="targetPoint" />
          </mxGeometry>
        </mxCell>
        <mxCell id="QkGEctxYSxYpFgOkM6_B-139" value="" style="ellipse;whiteSpace=wrap;html=1;align=center;aspect=fixed;fillColor=none;strokeColor=none;resizable=0;perimeter=centerPerimeter;rotatable=0;allowArrows=0;points=[];outlineConnect=1;" vertex="1" parent="1">
          <mxGeometry x="1435" y="525" width="10" height="10" as="geometry" />
        </mxCell>
        <mxCell id="QkGEctxYSxYpFgOkM6_B-140" value="HomeQuest" style="text;html=1;align=center;verticalAlign=middle;resizable=0;points=[];autosize=1;strokeColor=none;fillColor=none;fontSize=17;" vertex="1" parent="1">
          <mxGeometry x="1180" y="100" width="110" height="30" as="geometry" />
        </mxCell>
        <mxCell id="QkGEctxYSxYpFgOkM6_B-141" value="User" style="text;html=1;align=center;verticalAlign=middle;resizable=0;points=[];autosize=1;strokeColor=none;fillColor=none;fontSize=15;" vertex="1" parent="1">
          <mxGeometry x="1205" y="170" width="60" height="30" as="geometry" />
        </mxCell>
        <mxCell id="QkGEctxYSxYpFgOkM6_B-142" value="Server" style="whiteSpace=wrap;html=1;aspect=fixed;" vertex="1" parent="1">
          <mxGeometry x="1850" y="565" width="80" height="80" as="geometry" />
        </mxCell>
        <mxCell id="QkGEctxYSxYpFgOkM6_B-143" value="User Database" style="rounded=0;whiteSpace=wrap;html=1;" vertex="1" parent="1">
          <mxGeometry x="2183" y="300" width="120" height="60" as="geometry" />
        </mxCell>
        <mxCell id="QkGEctxYSxYpFgOkM6_B-144" value="Subscription Database" style="rounded=0;whiteSpace=wrap;html=1;" vertex="1" parent="1">
          <mxGeometry x="2460" y="475" width="120" height="60" as="geometry" />
        </mxCell>
        <mxCell id="QkGEctxYSxYpFgOkM6_B-145" value="Payment Authentication System" style="rounded=0;whiteSpace=wrap;html=1;" vertex="1" parent="1">
          <mxGeometry x="2460" y="665" width="120" height="60" as="geometry" />
        </mxCell>
        <mxCell id="QkGEctxYSxYpFgOkM6_B-146" value="Appointment Booking Database" style="rounded=0;whiteSpace=wrap;html=1;" vertex="1" parent="1">
          <mxGeometry x="2150" y="760" width="120" height="60" as="geometry" />
        </mxCell>
        <mxCell id="QkGEctxYSxYpFgOkM6_B-147" value="Listing Database" style="rounded=0;whiteSpace=wrap;html=1;" vertex="1" parent="1">
          <mxGeometry x="2150" y="890" width="120" height="60" as="geometry" />
        </mxCell>
        <mxCell id="QkGEctxYSxYpFgOkM6_B-148" value="" style="rounded=0;orthogonalLoop=1;jettySize=auto;html=1;endArrow=halfCircle;endFill=0;endSize=6;strokeWidth=1;sketch=0;exitX=1.004;exitY=0.653;exitDx=0;exitDy=0;exitPerimeter=0;" edge="1" parent="1" source="QkGEctxYSxYpFgOkM6_B-208" target="QkGEctxYSxYpFgOkM6_B-150">
          <mxGeometry relative="1" as="geometry">
            <mxPoint x="1715.0000000000005" y="604.2650000000003" as="sourcePoint" />
          </mxGeometry>
        </mxCell>
        <mxCell id="QkGEctxYSxYpFgOkM6_B-149" value="" style="rounded=0;orthogonalLoop=1;jettySize=auto;html=1;endArrow=oval;endFill=0;sketch=0;sourcePerimeterSpacing=0;targetPerimeterSpacing=0;endSize=10;exitX=0;exitY=0.5;exitDx=0;exitDy=0;" edge="1" parent="1" source="QkGEctxYSxYpFgOkM6_B-142" target="QkGEctxYSxYpFgOkM6_B-150">
          <mxGeometry relative="1" as="geometry">
            <mxPoint x="1800" y="605" as="sourcePoint" />
          </mxGeometry>
        </mxCell>
        <mxCell id="QkGEctxYSxYpFgOkM6_B-150" value="" style="ellipse;whiteSpace=wrap;html=1;align=center;aspect=fixed;fillColor=none;strokeColor=none;resizable=0;perimeter=centerPerimeter;rotatable=0;allowArrows=0;points=[];outlineConnect=1;" vertex="1" parent="1">
          <mxGeometry x="1815" y="600" width="10" height="10" as="geometry" />
        </mxCell>
        <mxCell id="QkGEctxYSxYpFgOkM6_B-151" value="iServer" style="text;html=1;align=center;verticalAlign=middle;resizable=0;points=[];autosize=1;strokeColor=none;fillColor=none;" vertex="1" parent="1">
          <mxGeometry x="1790" y="570" width="60" height="30" as="geometry" />
        </mxCell>
        <mxCell id="QkGEctxYSxYpFgOkM6_B-152" value="" style="rounded=0;orthogonalLoop=1;jettySize=auto;html=1;endArrow=halfCircle;endFill=0;endSize=6;strokeWidth=1;sketch=0;" edge="1" parent="1">
          <mxGeometry relative="1" as="geometry">
            <mxPoint x="1870" y="555" as="sourcePoint" />
            <mxPoint x="1965" y="330" as="targetPoint" />
            <Array as="points">
              <mxPoint x="1870" y="565" />
              <mxPoint x="1870" y="555" />
              <mxPoint x="1870" y="500" />
              <mxPoint x="1870" y="330" />
            </Array>
          </mxGeometry>
        </mxCell>
        <mxCell id="QkGEctxYSxYpFgOkM6_B-153" value="" style="rounded=0;orthogonalLoop=1;jettySize=auto;html=1;endArrow=oval;endFill=0;sketch=0;sourcePerimeterSpacing=0;targetPerimeterSpacing=0;endSize=10;exitX=-0.002;exitY=0.453;exitDx=0;exitDy=0;exitPerimeter=0;" edge="1" parent="1" source="QkGEctxYSxYpFgOkM6_B-195">
          <mxGeometry relative="1" as="geometry">
            <mxPoint x="2160" y="335" as="sourcePoint" />
            <mxPoint x="1970" y="330" as="targetPoint" />
          </mxGeometry>
        </mxCell>
        <mxCell id="QkGEctxYSxYpFgOkM6_B-154" value="" style="ellipse;whiteSpace=wrap;html=1;align=center;aspect=fixed;fillColor=none;strokeColor=none;resizable=0;perimeter=centerPerimeter;rotatable=0;allowArrows=0;points=[];outlineConnect=1;" vertex="1" parent="1">
          <mxGeometry x="2078" y="360" width="10" height="10" as="geometry" />
        </mxCell>
        <mxCell id="QkGEctxYSxYpFgOkM6_B-155" value="iUser" style="text;html=1;align=center;verticalAlign=middle;resizable=0;points=[];autosize=1;strokeColor=none;fillColor=none;" vertex="1" parent="1">
          <mxGeometry x="2035" y="300" width="50" height="30" as="geometry" />
        </mxCell>
        <mxCell id="QkGEctxYSxYpFgOkM6_B-156" value="" style="rounded=0;orthogonalLoop=1;jettySize=auto;html=1;endArrow=halfCircle;endFill=0;endSize=6;strokeWidth=1;sketch=0;exitX=1.003;exitY=0.195;exitDx=0;exitDy=0;exitPerimeter=0;" edge="1" parent="1" source="QkGEctxYSxYpFgOkM6_B-142" target="QkGEctxYSxYpFgOkM6_B-158">
          <mxGeometry relative="1" as="geometry">
            <mxPoint x="1950" y="506" as="sourcePoint" />
            <Array as="points">
              <mxPoint x="2060" y="580" />
            </Array>
          </mxGeometry>
        </mxCell>
        <mxCell id="QkGEctxYSxYpFgOkM6_B-157" value="" style="rounded=0;orthogonalLoop=1;jettySize=auto;html=1;endArrow=oval;endFill=0;sketch=0;sourcePerimeterSpacing=0;targetPerimeterSpacing=0;endSize=10;exitX=0;exitY=0.5;exitDx=0;exitDy=0;" edge="1" parent="1" source="QkGEctxYSxYpFgOkM6_B-144" target="QkGEctxYSxYpFgOkM6_B-158">
          <mxGeometry relative="1" as="geometry">
            <mxPoint x="2150" y="505" as="sourcePoint" />
          </mxGeometry>
        </mxCell>
        <mxCell id="QkGEctxYSxYpFgOkM6_B-158" value="" style="ellipse;whiteSpace=wrap;html=1;align=center;aspect=fixed;fillColor=none;strokeColor=none;resizable=0;perimeter=centerPerimeter;rotatable=0;allowArrows=0;points=[];outlineConnect=1;" vertex="1" parent="1">
          <mxGeometry x="2055" y="500" width="10" height="10" as="geometry" />
        </mxCell>
        <mxCell id="QkGEctxYSxYpFgOkM6_B-159" value="iSubDB" style="text;html=1;align=center;verticalAlign=middle;resizable=0;points=[];autosize=1;strokeColor=none;fillColor=none;" vertex="1" parent="1">
          <mxGeometry x="2030" y="470" width="60" height="30" as="geometry" />
        </mxCell>
        <mxCell id="QkGEctxYSxYpFgOkM6_B-160" value="" style="rounded=0;orthogonalLoop=1;jettySize=auto;html=1;endArrow=halfCircle;endFill=0;endSize=6;strokeWidth=1;sketch=0;entryX=0.537;entryY=0.849;entryDx=0;entryDy=0;entryPerimeter=0;exitX=1.009;exitY=0.562;exitDx=0;exitDy=0;exitPerimeter=0;" edge="1" parent="1" source="QkGEctxYSxYpFgOkM6_B-142" target="QkGEctxYSxYpFgOkM6_B-162">
          <mxGeometry relative="1" as="geometry">
            <mxPoint x="1990" y="610" as="sourcePoint" />
            <Array as="points">
              <mxPoint x="2070" y="610" />
              <mxPoint x="2070" y="670" />
            </Array>
          </mxGeometry>
        </mxCell>
        <mxCell id="QkGEctxYSxYpFgOkM6_B-161" value="" style="rounded=0;orthogonalLoop=1;jettySize=auto;html=1;endArrow=oval;endFill=0;sketch=0;sourcePerimeterSpacing=0;targetPerimeterSpacing=0;endSize=10;" edge="1" parent="1" target="QkGEctxYSxYpFgOkM6_B-162">
          <mxGeometry relative="1" as="geometry">
            <mxPoint x="2460" y="695" as="sourcePoint" />
            <mxPoint x="2070" y="700" as="targetPoint" />
          </mxGeometry>
        </mxCell>
        <mxCell id="QkGEctxYSxYpFgOkM6_B-162" value="" style="ellipse;whiteSpace=wrap;html=1;align=center;aspect=fixed;fillColor=none;strokeColor=none;resizable=0;perimeter=centerPerimeter;rotatable=0;allowArrows=0;points=[];outlineConnect=1;" vertex="1" parent="1">
          <mxGeometry x="2065" y="690" width="10" height="10" as="geometry" />
        </mxCell>
        <mxCell id="QkGEctxYSxYpFgOkM6_B-163" value="iPayment" style="text;html=1;align=center;verticalAlign=middle;resizable=0;points=[];autosize=1;strokeColor=none;fillColor=none;" vertex="1" parent="1">
          <mxGeometry x="2080" y="670" width="70" height="30" as="geometry" />
        </mxCell>
        <mxCell id="QkGEctxYSxYpFgOkM6_B-164" value="" style="rounded=0;orthogonalLoop=1;jettySize=auto;html=1;endArrow=halfCircle;endFill=0;endSize=6;strokeWidth=1;sketch=0;exitX=0.883;exitY=1.027;exitDx=0;exitDy=0;exitPerimeter=0;" edge="1" parent="1" source="QkGEctxYSxYpFgOkM6_B-142">
          <mxGeometry relative="1" as="geometry">
            <mxPoint x="1950" y="796" as="sourcePoint" />
            <mxPoint x="1920" y="790" as="targetPoint" />
            <Array as="points" />
          </mxGeometry>
        </mxCell>
        <mxCell id="QkGEctxYSxYpFgOkM6_B-165" value="" style="rounded=0;orthogonalLoop=1;jettySize=auto;html=1;endArrow=oval;endFill=0;sketch=0;sourcePerimeterSpacing=0;targetPerimeterSpacing=0;endSize=10;exitX=0;exitY=0.5;exitDx=0;exitDy=0;" edge="1" parent="1">
          <mxGeometry relative="1" as="geometry">
            <mxPoint x="2150" y="795" as="sourcePoint" />
            <mxPoint x="1920" y="795" as="targetPoint" />
          </mxGeometry>
        </mxCell>
        <mxCell id="QkGEctxYSxYpFgOkM6_B-166" value="" style="ellipse;whiteSpace=wrap;html=1;align=center;aspect=fixed;fillColor=none;strokeColor=none;resizable=0;perimeter=centerPerimeter;rotatable=0;allowArrows=0;points=[];outlineConnect=1;" vertex="1" parent="1">
          <mxGeometry x="2055" y="790" width="10" height="10" as="geometry" />
        </mxCell>
        <mxCell id="QkGEctxYSxYpFgOkM6_B-167" value="iBooking" style="text;html=1;align=center;verticalAlign=middle;resizable=0;points=[];autosize=1;strokeColor=none;fillColor=none;" vertex="1" parent="1">
          <mxGeometry x="2025" y="760" width="70" height="30" as="geometry" />
        </mxCell>
        <mxCell id="QkGEctxYSxYpFgOkM6_B-168" value="" style="rounded=0;orthogonalLoop=1;jettySize=auto;html=1;endArrow=halfCircle;endFill=0;endSize=6;strokeWidth=1;sketch=0;exitX=0.25;exitY=1;exitDx=0;exitDy=0;" edge="1" parent="1" source="QkGEctxYSxYpFgOkM6_B-142">
          <mxGeometry relative="1" as="geometry">
            <mxPoint x="1980" y="780" as="sourcePoint" />
            <mxPoint x="1870" y="920" as="targetPoint" />
          </mxGeometry>
        </mxCell>
        <mxCell id="QkGEctxYSxYpFgOkM6_B-169" value="" style="rounded=0;orthogonalLoop=1;jettySize=auto;html=1;endArrow=oval;endFill=0;sketch=0;sourcePerimeterSpacing=0;targetPerimeterSpacing=0;endSize=10;exitX=0;exitY=0.5;exitDx=0;exitDy=0;" edge="1" parent="1" source="QkGEctxYSxYpFgOkM6_B-147">
          <mxGeometry relative="1" as="geometry">
            <mxPoint x="2150" y="925" as="sourcePoint" />
            <mxPoint x="1870" y="920" as="targetPoint" />
          </mxGeometry>
        </mxCell>
        <mxCell id="QkGEctxYSxYpFgOkM6_B-170" value="" style="ellipse;whiteSpace=wrap;html=1;align=center;aspect=fixed;fillColor=none;strokeColor=none;resizable=0;perimeter=centerPerimeter;rotatable=0;allowArrows=0;points=[];outlineConnect=1;" vertex="1" parent="1">
          <mxGeometry x="2055" y="920" width="10" height="10" as="geometry" />
        </mxCell>
        <mxCell id="QkGEctxYSxYpFgOkM6_B-171" value="iList" style="text;html=1;align=center;verticalAlign=middle;resizable=0;points=[];autosize=1;strokeColor=none;fillColor=none;" vertex="1" parent="1">
          <mxGeometry x="2040" y="890" width="40" height="30" as="geometry" />
        </mxCell>
        <mxCell id="QkGEctxYSxYpFgOkM6_B-172" value="Subscription Receipt Database" style="rounded=0;whiteSpace=wrap;html=1;" vertex="1" parent="1">
          <mxGeometry x="2460" y="390" width="120" height="60" as="geometry" />
        </mxCell>
        <mxCell id="QkGEctxYSxYpFgOkM6_B-173" value="" style="rounded=0;orthogonalLoop=1;jettySize=auto;html=1;endArrow=halfCircle;endFill=0;endSize=6;strokeWidth=1;sketch=0;" edge="1" parent="1">
          <mxGeometry relative="1" as="geometry">
            <mxPoint x="1890" y="560" as="sourcePoint" />
            <Array as="points">
              <mxPoint x="1890" y="565" />
              <mxPoint x="1890" y="560" />
              <mxPoint x="1890" y="425" />
            </Array>
            <mxPoint x="1980" y="425" as="targetPoint" />
          </mxGeometry>
        </mxCell>
        <mxCell id="QkGEctxYSxYpFgOkM6_B-174" value="" style="rounded=0;orthogonalLoop=1;jettySize=auto;html=1;endArrow=oval;endFill=0;sketch=0;sourcePerimeterSpacing=0;targetPerimeterSpacing=0;endSize=10;exitX=-0.003;exitY=0.599;exitDx=0;exitDy=0;exitPerimeter=0;" edge="1" parent="1" source="QkGEctxYSxYpFgOkM6_B-172" target="QkGEctxYSxYpFgOkM6_B-175">
          <mxGeometry relative="1" as="geometry">
            <mxPoint x="2025" y="425" as="sourcePoint" />
          </mxGeometry>
        </mxCell>
        <mxCell id="QkGEctxYSxYpFgOkM6_B-175" value="" style="ellipse;whiteSpace=wrap;html=1;align=center;aspect=fixed;fillColor=none;strokeColor=none;resizable=0;perimeter=centerPerimeter;rotatable=0;allowArrows=0;points=[];outlineConnect=1;" vertex="1" parent="1">
          <mxGeometry x="1980" y="420" width="10" height="10" as="geometry" />
        </mxCell>
        <mxCell id="QkGEctxYSxYpFgOkM6_B-176" value="iReceipt" style="text;html=1;align=center;verticalAlign=middle;resizable=0;points=[];autosize=1;strokeColor=none;fillColor=none;" vertex="1" parent="1">
          <mxGeometry x="2005" y="400" width="70" height="30" as="geometry" />
        </mxCell>
        <mxCell id="QkGEctxYSxYpFgOkM6_B-177" value="iSubscribe" style="text;html=1;align=center;verticalAlign=middle;resizable=0;points=[];autosize=1;strokeColor=none;fillColor=none;" vertex="1" parent="1">
          <mxGeometry x="1070" y="505" width="80" height="30" as="geometry" />
        </mxCell>
        <mxCell id="QkGEctxYSxYpFgOkM6_B-178" value="iMarketplace" style="text;html=1;align=center;verticalAlign=middle;resizable=0;points=[];autosize=1;strokeColor=none;fillColor=none;" vertex="1" parent="1">
          <mxGeometry x="1335" y="500" width="90" height="30" as="geometry" />
        </mxCell>
        <mxCell id="QkGEctxYSxYpFgOkM6_B-179" value="iPay" style="text;html=1;align=center;verticalAlign=middle;resizable=0;points=[];autosize=1;strokeColor=none;fillColor=none;" vertex="1" parent="1">
          <mxGeometry x="1035" y="590" width="50" height="30" as="geometry" />
        </mxCell>
        <mxCell id="QkGEctxYSxYpFgOkM6_B-180" value="iMarketplace" style="text;html=1;align=center;verticalAlign=middle;resizable=0;points=[];autosize=1;strokeColor=none;fillColor=none;" vertex="1" parent="1">
          <mxGeometry x="1280" y="575" width="90" height="30" as="geometry" />
        </mxCell>
        <mxCell id="QkGEctxYSxYpFgOkM6_B-181" value="Subscription Type System" style="rounded=0;whiteSpace=wrap;html=1;" vertex="1" parent="1">
          <mxGeometry x="800" y="585" width="120" height="60" as="geometry" />
        </mxCell>
        <mxCell id="QkGEctxYSxYpFgOkM6_B-182" value="" style="rounded=0;orthogonalLoop=1;jettySize=auto;html=1;endArrow=halfCircle;endFill=0;endSize=6;strokeWidth=1;sketch=0;exitX=0;exitY=0.5;exitDx=0;exitDy=0;" edge="1" parent="1" target="QkGEctxYSxYpFgOkM6_B-184">
          <mxGeometry relative="1" as="geometry">
            <mxPoint x="950" y="540" as="sourcePoint" />
          </mxGeometry>
        </mxCell>
        <mxCell id="QkGEctxYSxYpFgOkM6_B-183" value="" style="rounded=0;orthogonalLoop=1;jettySize=auto;html=1;endArrow=oval;endFill=0;sketch=0;sourcePerimeterSpacing=0;targetPerimeterSpacing=0;endSize=10;exitX=0.413;exitY=-0.009;exitDx=0;exitDy=0;exitPerimeter=0;" edge="1" parent="1" source="QkGEctxYSxYpFgOkM6_B-181" target="QkGEctxYSxYpFgOkM6_B-184">
          <mxGeometry relative="1" as="geometry">
            <mxPoint x="830" y="540" as="sourcePoint" />
            <Array as="points">
              <mxPoint x="850" y="540" />
            </Array>
          </mxGeometry>
        </mxCell>
        <mxCell id="QkGEctxYSxYpFgOkM6_B-184" value="" style="ellipse;whiteSpace=wrap;html=1;align=center;aspect=fixed;fillColor=none;strokeColor=none;resizable=0;perimeter=centerPerimeter;rotatable=0;allowArrows=0;points=[];outlineConnect=1;" vertex="1" parent="1">
          <mxGeometry x="875" y="535" width="10" height="10" as="geometry" />
        </mxCell>
        <mxCell id="QkGEctxYSxYpFgOkM6_B-185" value="iSubscriptionType" style="text;html=1;align=center;verticalAlign=middle;resizable=0;points=[];autosize=1;strokeColor=none;fillColor=none;" vertex="1" parent="1">
          <mxGeometry x="820" y="510" width="120" height="30" as="geometry" />
        </mxCell>
        <mxCell id="QkGEctxYSxYpFgOkM6_B-186" value="Payment Database" style="rounded=0;whiteSpace=wrap;html=1;" vertex="1" parent="1">
          <mxGeometry x="2460" y="560" width="120" height="60" as="geometry" />
        </mxCell>
        <mxCell id="QkGEctxYSxYpFgOkM6_B-187" value="" style="rounded=0;orthogonalLoop=1;jettySize=auto;html=1;endArrow=halfCircle;endFill=0;endSize=6;strokeWidth=1;sketch=0;exitX=1;exitY=0.32;exitDx=0;exitDy=0;exitPerimeter=0;" edge="1" parent="1" source="QkGEctxYSxYpFgOkM6_B-142">
          <mxGeometry relative="1" as="geometry">
            <mxPoint x="2105" y="590" as="sourcePoint" />
            <mxPoint x="2085" y="590" as="targetPoint" />
          </mxGeometry>
        </mxCell>
        <mxCell id="QkGEctxYSxYpFgOkM6_B-188" value="" style="rounded=0;orthogonalLoop=1;jettySize=auto;html=1;endArrow=oval;endFill=0;sketch=0;sourcePerimeterSpacing=0;targetPerimeterSpacing=0;endSize=10;exitX=0;exitY=0.5;exitDx=0;exitDy=0;" edge="1" parent="1" source="QkGEctxYSxYpFgOkM6_B-186">
          <mxGeometry relative="1" as="geometry">
            <mxPoint x="2160" y="590" as="sourcePoint" />
            <mxPoint x="2085" y="590" as="targetPoint" />
          </mxGeometry>
        </mxCell>
        <mxCell id="QkGEctxYSxYpFgOkM6_B-189" value="" style="ellipse;whiteSpace=wrap;html=1;align=center;aspect=fixed;fillColor=none;strokeColor=none;resizable=0;perimeter=centerPerimeter;rotatable=0;allowArrows=0;points=[];outlineConnect=1;" vertex="1" parent="1">
          <mxGeometry x="2125" y="690" width="10" height="10" as="geometry" />
        </mxCell>
        <mxCell id="QkGEctxYSxYpFgOkM6_B-190" value="iListProperty" style="text;html=1;align=center;verticalAlign=middle;resizable=0;points=[];autosize=1;strokeColor=none;fillColor=none;" vertex="1" parent="1">
          <mxGeometry x="1115" y="595" width="90" height="30" as="geometry" />
        </mxCell>
        <mxCell id="QkGEctxYSxYpFgOkM6_B-191" value="iVerify" style="text;html=1;align=center;verticalAlign=middle;resizable=0;points=[];autosize=1;strokeColor=none;fillColor=none;" vertex="1" parent="1">
          <mxGeometry x="1180" y="708" width="60" height="30" as="geometry" />
        </mxCell>
        <mxCell id="QkGEctxYSxYpFgOkM6_B-192" value="" style="group" vertex="1" connectable="0" parent="1">
          <mxGeometry x="2153" y="240" width="177" height="140" as="geometry" />
        </mxCell>
        <mxCell id="QkGEctxYSxYpFgOkM6_B-193" value="«Subsystem»&lt;br&gt;&lt;b&gt;User Management&lt;/b&gt;" style="html=1;dropTarget=0;whiteSpace=wrap;" vertex="1" parent="QkGEctxYSxYpFgOkM6_B-192">
          <mxGeometry width="177" height="50" as="geometry" />
        </mxCell>
        <mxCell id="QkGEctxYSxYpFgOkM6_B-194" value="" style="shape=module;jettyWidth=8;jettyHeight=4;" vertex="1" parent="QkGEctxYSxYpFgOkM6_B-193">
          <mxGeometry x="1" width="20" height="20" relative="1" as="geometry">
            <mxPoint x="-27" y="7" as="offset" />
          </mxGeometry>
        </mxCell>
        <mxCell id="QkGEctxYSxYpFgOkM6_B-195" value="" style="rounded=0;whiteSpace=wrap;html=1;fillColor=none;" vertex="1" parent="QkGEctxYSxYpFgOkM6_B-192">
          <mxGeometry y="50" width="177" height="90" as="geometry" />
        </mxCell>
        <mxCell id="QkGEctxYSxYpFgOkM6_B-196" value="iPayment" style="text;html=1;align=center;verticalAlign=middle;resizable=0;points=[];autosize=1;strokeColor=none;fillColor=none;" vertex="1" parent="1">
          <mxGeometry x="2078" y="555" width="70" height="30" as="geometry" />
        </mxCell>
        <mxCell id="QkGEctxYSxYpFgOkM6_B-197" value="" style="group" vertex="1" connectable="0" parent="1">
          <mxGeometry x="2120" y="708" width="180" height="252" as="geometry" />
        </mxCell>
        <mxCell id="QkGEctxYSxYpFgOkM6_B-198" value="«Subsystem»&lt;br&gt;&lt;b&gt;&amp;nbsp;Marketplace&lt;/b&gt;" style="html=1;dropTarget=0;whiteSpace=wrap;container=0;" vertex="1" parent="QkGEctxYSxYpFgOkM6_B-197">
          <mxGeometry width="180" height="40.64516129032258" as="geometry" />
        </mxCell>
        <mxCell id="QkGEctxYSxYpFgOkM6_B-199" value="" style="rounded=0;whiteSpace=wrap;html=1;fillColor=none;" vertex="1" parent="QkGEctxYSxYpFgOkM6_B-197">
          <mxGeometry y="40.64516129032258" width="180" height="211.3548387096774" as="geometry" />
        </mxCell>
        <mxCell id="QkGEctxYSxYpFgOkM6_B-200" value="«Subsystem»&lt;br&gt;&lt;b&gt;Payment Processing Management&lt;/b&gt;" style="html=1;dropTarget=0;whiteSpace=wrap;container=0;" vertex="1" parent="1">
          <mxGeometry x="2440" y="733.23" width="160" height="44.92" as="geometry" />
        </mxCell>
        <mxCell id="QkGEctxYSxYpFgOkM6_B-201" value="«Subsystem»&lt;br&gt;&lt;b&gt;Subscription Management&lt;/b&gt;" style="html=1;dropTarget=0;whiteSpace=wrap;container=0;" vertex="1" parent="1">
          <mxGeometry x="2430" y="329.99999999999994" width="180" height="50" as="geometry" />
        </mxCell>
        <mxCell id="QkGEctxYSxYpFgOkM6_B-202" value="" style="rounded=0;whiteSpace=wrap;html=1;fillColor=none;" vertex="1" parent="1">
          <mxGeometry x="2430" y="379.99999999999994" width="180" height="260" as="geometry" />
        </mxCell>
        <mxCell id="QkGEctxYSxYpFgOkM6_B-203" value="" style="rounded=0;whiteSpace=wrap;html=1;fillColor=none;" vertex="1" parent="1">
          <mxGeometry x="2440" y="555" width="160" height="178.23" as="geometry" />
        </mxCell>
        <mxCell id="QkGEctxYSxYpFgOkM6_B-204" value="" style="group" vertex="1" connectable="0" parent="1">
          <mxGeometry x="1950" y="180" width="690" height="800" as="geometry" />
        </mxCell>
        <mxCell id="QkGEctxYSxYpFgOkM6_B-205" value="" style="rounded=0;whiteSpace=wrap;html=1;fillColor=none;" vertex="1" parent="QkGEctxYSxYpFgOkM6_B-204">
          <mxGeometry y="51.28205128205128" width="690" height="748.7179487179486" as="geometry" />
        </mxCell>
        <mxCell id="QkGEctxYSxYpFgOkM6_B-206" value="" style="group" vertex="1" connectable="0" parent="1">
          <mxGeometry x="790" y="115" width="790" height="770" as="geometry" />
        </mxCell>
        <mxCell id="QkGEctxYSxYpFgOkM6_B-207" value="" style="rounded=0;whiteSpace=wrap;html=1;fillColor=none;" vertex="1" parent="QkGEctxYSxYpFgOkM6_B-206">
          <mxGeometry y="47.115384615384606" width="740.0000000000001" height="687.8846153846152" as="geometry" />
        </mxCell>
        <mxCell id="QkGEctxYSxYpFgOkM6_B-208" value="" style="rounded=0;whiteSpace=wrap;html=1;fillColor=none;" vertex="1" parent="QkGEctxYSxYpFgOkM6_B-206">
          <mxGeometry x="-20" y="-42.88" width="810" height="812.88" as="geometry" />
        </mxCell>
      </root>
    </mxGraphModel>
  </diagram>
</mxfile>
